PathFileType	4	(X/Y/Z)	walk-thru1-2-TP.trc
DataRate	CameraRate	NumFrames	NumMarkers	Units	OrigDataRate	OrigDataStartFrame	OrigNumFrames
120.00	120.00	       4	60	mm	120.00	1	       502
Frame#	Time	Top.Head			Front.Head			Rear.Head			Jaw			C7			R.Clavicle			L.Clavicle			R.Shoulder			L.Shoulder			R.Scapula			L.Scapula			R.Scap.Inf			R.Biceps.Lateral			R.Elbow			R.Elbow.Medial			R.Forearm			R.Ulna			R.Radius			R.Wrist			R.Thumb.M1			R.Thumb.M2			R.Thumb.M3			R.Finger3.M1			R.Finger3.M2			R.Finger3.M3			L.Biceps.Lateral			L.Elbow			L.Elbow.Medial			L.Forearm			L.Ulna			L.Radius			L.Wrist			L.Thumb.M1			L.Thumb.M2			L.Thumb.M3			L.Finger3.M1			L.Finger3.M2			L.Finger3.M3			V.Sacral			R.ASIS			L.ASIS			R.Thigh			R.Thigh.Front			R.Knee			R.Knee.Medial			R.Shank			R.Ankle			R.Ankle.Medial			R.Heel			R.Toe			R.MedFoot			L.Thigh			L.Knee			L.Knee.Medial			L.Shank			L.Ankle			L.Ankle.Medial			L.Heel			L.Toe			L.MedFoot			V_mid_ASIS			V_R_Knee_JC			V_L_Knee_JC			V_R_Elbow_JC			V_L_Elbow_JC			V_R_Ankle_JC			V_L_Ankle_JC			V_R_Wrist_JC			V_L_Wrist_JC			V_R_ScaTrpz_1stMC_JC			V_R_1stMC_1stPP_JC			V_R_1stPP_1stDP_JC			V_R_LunCap_3rdMC_JC			V_R_3rdMC_3rdPP_JC			V_R_3rdPP_3rdMP_JC			V_R_3rdMP_3rdDP_JC			V_L_ScaTrpz_1stMC_JC			V_L_1stMC_1stPP_JC			V_L_1stPP_1stDP_JC			V_L_LunCap_3rdMC_JC			V_L_3rdMC_3rdPP_JC			V_L_3rdPP_3rdMP_JC			V_L_3rdMP_3rdPP_JC			V_ROOT_JC			V_R_Hip_JC			V_L_Hip_JC			V_R_GlenHum_JC			V_L_GlenHum_JC			V_ForeHead_Ctr			V_Vertex			V_Sagit_Lambdoid_Suture			V_R_FrontoTemp			V_L_FrontoTemporal			V_R_ParietalOccip			V_L_ParietalOcciptal			V_R_Temporal			V_L_Temporal			V_mid_FrontRearHead			V_mid_RLGlenHumCtrs			V_C7_vert			V_C1_vert			V_Mid_Hip			
		X1	Y1	Z1	X2	Y2	Z2	X3	Y3	Z3	X4	Y4	Z4	X5	Y5	Z5	X6	Y6	Z6	X7	Y7	Z7	X8	Y8	Z8	X9	Y9	Z9	X10	Y10	Z10	X11	Y11	Z11	X12	Y12	Z12	X13	Y13	Z13	X14	Y14	Z14	X15	Y15	Z15	X16	Y16	Z16	X17	Y17	Z17	X18	Y18	Z18	X19	Y19	Z19	X20	Y20	Z20	X21	Y21	Z21	X22	Y22	Z22	X23	Y23	Z23	X24	Y24	Z24	X25	Y25	Z25	X26	Y26	Z26	X27	Y27	Z27	X28	Y28	Z28	X29	Y29	Z29	X30	Y30	Z30	X31	Y31	Z31	X32	Y32	Z32	X33	Y33	Z33	X34	Y34	Z34	X35	Y35	Z35	X36	Y36	Z36	X37	Y37	Z37	X38	Y38	Z38	X39	Y39	Z39	X40	Y40	Z40	X41	Y41	Z41	X42	Y42	Z42	X43	Y43	Z43	X44	Y44	Z44	X45	Y45	Z45	X46	Y46	Z46	X47	Y47	Z47	X48	Y48	Z48	X49	Y49	Z49	X50	Y50	Z50	X51	Y51	Z51	X52	Y52	Z52	X53	Y53	Z53	X54	Y54	Z54	X55	Y55	Z55	X56	Y56	Z56	X57	Y57	Z57	X58	Y58	Z58	X59	Y59	Z59	X60	Y60	Z60	

1	0.000	-802.63989	25.30088	1760.44470	-709.28430	6.28120	1635.10083	-937.55560	33.72923	1694.56189	-809.62921	9.65385	1465.42395	-1036.61914	18.92574	1573.24866	-941.06628	-102.98194	1491.50269	-936.74402	142.58327	1474.32019	-992.67603	-209.46251	1484.91772	-984.02448	244.89497	1474.96521	-1105.88403	-80.63901	1488.02454	-1110.40002	111.70063	1475.59131	-1139.89539	-85.20348	1398.94971	-1038.72144	-243.34570	1348.04578	-1111.94360	-272.85736	1168.40125	-1106.97632	-175.89008	1159.89771	-1019.75433	-267.48776	1097.76538	-1083.96167	-272.16208	966.01678	-975.01648	-258.26288	929.06335	-971.15564	-308.47232	907.37610	-952.80847	-260.68344	882.98328	-947.76184	-243.46404	833.56152	-945.47339	-256.36353	784.23938	-950.55090	-334.66904	830.85132	-984.59601	-300.85260	763.76099	-1007.82117	-248.23747	795.12469	-1038.15942	275.09534	1330.77490	-1102.29224	290.47400	1162.32690	-1119.76978	196.45271	1137.96423	-1017.65045	291.27084	1081.81409	-1076.04993	317.02634	977.18262	-977.90247	294.48315	921.88440	-999.43896	338.24289	890.12238	-954.62671	294.26544	868.06812	-935.31873	271.84238	822.66766	-925.96051	275.83301	773.75372	-970.41730	354.33734	794.27203	-969.47351	323.99414	733.77362	-978.95044	264.09839	733.09479	-1171.80786	6.30586	1124.29834	-979.87769	-181.24106	1064.03589	-983.44781	167.69612	1063.76599	-912.20624	-178.02983	702.25250	-811.51062	-95.74554	609.09009	-856.73901	-157.83253	546.91803	-866.55914	-38.37933	540.10437	-925.88367	-125.16115	335.86575	-1097.76550	-165.42986	161.29626	-1069.23499	-64.22359	168.74507	-1165.99316	-112.83185	144.22270	-962.54437	-125.65970	65.70873	-994.14288	-94.70269	114.04803	-999.32233	161.98019	672.77966	-989.00061	133.62477	531.98956	-1005.14044	24.88784	514.65503	-992.58002	85.97352	322.10101	-1103.25671	93.81909	80.54070	-1056.55481	2.76591	109.93081	-1143.00598	24.33902	48.05906	-921.92548	87.27943	41.80577	-984.98676	42.16337	84.46756																																																																																																																															
2	0.008	-796.70410	24.06313	1761.46240	-704.75336	7.36299	1635.13745	-931.68982	34.11238	1695.13098	-804.95013	12.55802	1465.56201	-1031.52124	18.98299	1573.05579	-935.62158	-103.10861	1492.30225	-930.23175	142.14970	1473.84741	-986.58820	-209.56302	1485.03308	-977.18536	245.51660	1475.17944	-1100.77759	-79.73631	1487.89197	-1104.24438	112.45457	1475.33276	-1134.76270	-84.14403	1399.03015	-1032.67273	-243.45671	1347.97778	-1107.64209	-273.92352	1168.71680	-1103.81128	-176.23938	1159.86401	-1015.25787	-264.09961	1097.17957	-1078.52478	-272.13623	965.87903	-970.53815	-258.77002	929.46545	-966.42120	-307.66504	907.32916	-949.55963	-256.62988	880.78131	-945.83063	-241.05151	828.59619	-945.35797	-255.70189	779.29437	-947.83215	-334.61136	830.14807	-983.72211	-303.00113	763.73883	-1007.43695	-251.40335	793.59247	-1033.15417	275.91699	1330.29041	-1095.69775	291.43225	1161.52380	-1112.08545	197.89531	1136.96570	-1011.22913	293.01538	1081.67505	-1067.14978	317.60034	976.54877	-970.11530	297.09885	923.15778	-990.06201	340.62180	889.98267	-945.75916	296.57590	869.10968	-926.10388	273.08429	823.52960	-915.53882	277.77176	774.44824	-960.92938	356.56888	794.73645	-959.32269	326.43753	733.91547	-968.31152	266.41779	733.40295	-1165.95935	6.95910	1124.86438	-974.89026	-180.68248	1063.36267	-978.90759	168.73857	1063.58826	-904.91486	-177.06052	702.87500	-803.73474	-94.64587	610.66919	-849.02411	-156.59154	548.69958	-859.42657	-37.76020	543.00580	-912.25751	-125.19163	335.97101	-1079.22095	-165.50101	156.72552	-1051.53772	-63.24559	164.52449	-1147.29163	-112.36520	137.08051	-940.88562	-125.07402	65.31514	-973.30945	-93.86842	113.04374	-996.02020	162.85832	672.84094	-987.33667	133.26593	530.77588	-1003.47430	25.74096	513.82294	-991.54950	86.47636	321.75632	-1103.40771	93.65663	80.71561	-1056.76172	2.95319	110.08377	-1142.91565	24.51135	48.14250	-921.92548	87.27943	41.80577	-985.39142	42.14017	84.30244																																																																																																																															
3	0.017	-791.17517	26.58798	1761.00964	-699.60443	6.56207	1634.61353	-927.11615	33.97250	1694.59534	-798.73816	11.00027	1465.96741	-1026.21863	19.94624	1572.80200	-930.89227	-102.00533	1492.25781	-925.28094	143.27386	1474.65906	-982.27167	-209.30540	1484.37622	-971.33374	245.45444	1475.09216	-1095.51514	-79.69260	1487.89258	-1099.04065	112.79197	1475.45068	-1130.79919	-83.54224	1398.65808	-1028.13269	-243.15765	1347.81152	-1102.22522	-272.60349	1168.18176	-1097.52197	-176.05354	1160.91406	-1010.29510	-262.12234	1097.49780	-1074.08179	-272.18625	965.97583	-966.50635	-258.24643	928.30676	-961.12616	-306.01077	907.33679	-944.58337	-257.59912	879.77838	-944.06134	-241.60295	827.21729	-956.26965	-250.49684	773.06976	-945.03119	-334.14774	828.52814	-982.77087	-304.53415	763.15912	-1005.03351	-251.35788	793.79492	-1028.50256	276.93234	1329.91089	-1089.37585	293.91815	1161.11523	-1105.17310	198.00366	1136.05457	-1004.39551	294.08008	1081.62964	-1059.01257	318.16867	975.53662	-961.08905	296.45697	923.00848	-981.12048	341.94214	890.56354	-936.60529	299.84958	869.62341	-916.89264	275.14944	825.58966	-904.33124	280.53467	776.18665	-950.56415	357.65326	795.64520	-947.97607	327.58292	735.75323	-957.26984	268.29889	734.08893	-1161.03137	6.83153	1124.51917	-970.03967	-180.68227	1063.61877	-973.48883	169.50734	1062.80066	-897.99030	-177.65361	703.35400	-796.65344	-94.28425	612.77911	-840.62537	-154.72176	550.37714	-850.99969	-36.57408	544.24341	-898.12543	-123.97657	335.69897	-1059.63293	-163.61528	151.30937	-1030.83398	-60.75389	161.52652	-1125.88562	-111.69092	129.92841	-919.00885	-125.08655	64.48820	-953.34387	-94.99698	110.95055	-993.29144	162.44617	672.66638	-984.42029	132.95297	530.75897	-1001.04089	26.46079	513.54254	-990.05420	87.08314	321.69400	-1103.24280	93.71156	80.82728	-1056.28589	2.72781	109.78954	-1142.91565	24.51135	48.14250	-921.92548	87.27943	41.80577	-985.39142	42.14017	84.30244																																																																																																																															
4	0.025	-785.66168	26.00119	1760.75671	-693.37842	6.42651	1634.19226	-921.30469	35.36410	1694.93188	-793.75726	10.91528	1465.58459	-1020.68463	19.99026	1572.51331	-926.26416	-101.93262	1491.07935	-920.61591	143.50742	1473.83594	-978.17938	-209.41389	1484.28650	-968.06683	246.71245	1475.63098	-1090.18250	-79.08999	1487.17114	-1093.24719	113.54314	1475.44592	-1125.44543	-82.92477	1398.50037	-1023.59668	-242.86055	1347.42773	-1097.19849	-271.70816	1168.42200	-1095.14978	-175.79581	1160.83386	-1003.27051	-266.84967	1096.31592	-1068.53308	-273.21106	966.24487	-960.27747	-256.97968	928.61920	-955.38531	-305.76016	906.31073	-941.55243	-255.43892	879.42798	-943.07422	-239.96228	827.40985	-955.09662	-250.45863	773.67609	-941.72559	-333.44330	827.36633	-982.82526	-303.25433	762.87823	-1003.72845	-250.73637	794.17688	-1021.01959	276.69510	1329.51318	-1082.86230	293.91415	1160.50989	-1098.35291	200.45538	1134.91833	-996.58130	294.78418	1081.91809	-1052.58826	320.65533	976.42078	-952.26129	297.60611	924.31091	-972.50909	342.72690	891.99500	-927.83087	301.81537	871.38068	-908.19800	277.23499	826.53760	-894.45581	283.65683	777.30627	-941.42126	359.58481	796.56293	-938.33240	329.19031	736.57898	-946.96875	270.78757	734.59167	-1155.69470	7.80491	1124.51624	-964.18268	-180.17332	1064.15332	-966.91534	169.31259	1062.64758	-891.70630	-176.33775	704.42010	-790.96387	-92.63142	614.72974	-833.05023	-154.19540	551.32416	-842.73663	-35.79301	545.05597	-885.26721	-123.14746	335.59903	-1040.74512	-163.40475	146.86174	-1012.51019	-60.60986	157.07396	-1106.34814	-111.13735	123.41248	-896.71851	-123.92914	63.55997	-932.05249	-93.42455	109.34072	-989.42682	162.54893	672.12878	-983.17572	133.39720	530.11908	-999.15601	26.23283	513.62286	-987.99817	87.07615	321.31573	-1103.19983	93.72971	80.94625	-1055.68311	2.90443	109.26025	-1142.77820	24.39830	48.24186	-921.85541	87.41183	41.48164	-985.39142	42.14017	84.30244																																																																																																																															
